<?xml version="1.0"?><svg xmlns="http://www.w3.org/2000/svg" xmlns:xlink="http://www.w3.org/1999/xlink" viewBox="167.8 372.58 79.42 74.76" preserveAspectRatio="xMidYMid" width="100%" height="100%"><clipPath id="265"><rect x="0.3" y="0.3" width="539.4" height="719.15" /></clipPath><g id="drawing"><rect x="167.8" y="372.58" width="100%" height="100%" fill="rgb(255, 255, 255, 0)" /><g id="page" clip-path="url(#265)"><g id="Solid"><path d="M233.05 397.08 L233.05 397.08 L232.88 397.38 L232.53 397.38 L225.16 385.41 L225.33 385.11 L225.5 384.81 Z" stroke="#ffffff" stroke-width="0" fill-rule="evenodd" stroke-linejoin="miter" fill="#ffffff" shape-rendering="geometricPrecision" /></g><g id="Solid"><path d="M225.5 384.81 L225.5 384.81 L225.33 385.11 L225.16 385.41 L211.11 385.41 L210.93 385.11 L211.1 384.81 Z" stroke="#ffffff" stroke-width="0" fill-rule="evenodd" stroke-linejoin="miter" fill="#ffffff" shape-rendering="geometricPrecision" /><line x1="223.88" y1="387.7" x2="212.45" y2="387.7" stroke="#ffffff" stroke-width="0.6" shape-rendering="auto" /></g><g id="Solid"><path d="M210.58 385.11 L210.58 385.11 L210.93 385.11 L211.11 385.41 L204.43 397.38 L204.09 397.38 L203.91 397.08 Z" stroke="#ffffff" stroke-width="0" fill-rule="evenodd" stroke-linejoin="miter" fill="#ffffff" shape-rendering="geometricPrecision" /></g><g id="Solid"><path d="M203.91 397.68 L203.91 397.68 L204.09 397.38 L204.43 397.38 L211.11 409.34 L210.93 409.64 L210.59 409.64 Z" stroke="#ffffff" stroke-width="0" fill-rule="evenodd" stroke-linejoin="miter" fill="#ffffff" shape-rendering="geometricPrecision" /></g><g id="Solid"><path d="M211.1 409.94 L211.1 409.94 L210.93 409.64 L211.11 409.34 L225.16 409.34 L225.33 409.64 L225.16 409.94 Z" stroke="#ffffff" stroke-width="0" fill-rule="evenodd" stroke-linejoin="miter" fill="#ffffff" shape-rendering="geometricPrecision" /><line x1="212.43" y1="412.23" x2="223.83" y2="412.23" stroke="#ffffff" stroke-width="0.6" shape-rendering="auto" /></g><g id="Solid"><path d="M225.68 409.64 L225.68 409.64 L225.33 409.64 L225.16 409.34 L232.53 397.38 L232.88 397.38 L233.05 397.68 Z" stroke="#ffffff" stroke-width="0" fill-rule="evenodd" stroke-linejoin="miter" fill="#ffffff" shape-rendering="geometricPrecision" /></g><g id="Solid"><path d="M210.59 409.64 L210.59 409.64 L210.93 409.64 L211.1 409.94 L204.09 422.1 L203.74 422.1 L203.57 421.8 Z" stroke="#ffffff" stroke-width="0" fill-rule="evenodd" stroke-linejoin="miter" fill="#ffffff" shape-rendering="geometricPrecision" /></g><g id="Solid"><path d="M203.57 422.4 L203.57 422.4 L203.74 422.1 L204.09 422.1 L211.1 434.27 L210.93 434.57 L210.58 434.57 Z" stroke="#ffffff" stroke-width="0" fill-rule="evenodd" stroke-linejoin="miter" fill="#ffffff" shape-rendering="geometricPrecision" /><line x1="206.73" y1="422.1" x2="212.43" y2="431.98" stroke="#ffffff" stroke-width="0.6" shape-rendering="auto" /></g><g id="Solid"><path d="M211.1 434.87 L211.1 434.87 L210.93 434.57 L211.1 434.27 L225.16 434.27 L225.33 434.57 L225.5 434.87 Z" stroke="#ffffff" stroke-width="0" fill-rule="evenodd" stroke-linejoin="miter" fill="#ffffff" shape-rendering="geometricPrecision" /></g><g id="Solid"><path d="M225.5 434.87 L225.5 434.87 L225.33 434.57 L225.16 434.27 L232.18 422.1 L232.53 422.1 L232.7 422.4 Z" stroke="#ffffff" stroke-width="0" fill-rule="evenodd" stroke-linejoin="miter" fill="#ffffff" shape-rendering="geometricPrecision" /></g><g id="Solid"><path d="M232.7 421.8 L232.7 421.8 L232.53 422.1 L232.18 422.1 L225.16 409.94 L225.33 409.64 L225.68 409.64 Z" stroke="#ffffff" stroke-width="0" fill-rule="evenodd" stroke-linejoin="miter" fill="#ffffff" shape-rendering="geometricPrecision" /></g><g id="Solid"><path d="M203.57 421.8 L203.57 421.8 L203.74 422.1 L203.57 422.4 L189.51 422.4 L189.34 422.1 L189.17 421.8 Z" stroke="#ffffff" stroke-width="0" fill-rule="evenodd" stroke-linejoin="miter" fill="#ffffff" shape-rendering="geometricPrecision" /></g><g id="Solid"><path d="M189.17 421.8 L189.17 421.8 L189.34 422.1 L189.51 422.4 L182.5 434.57 L182.15 434.57 L181.98 434.27 Z" stroke="#ffffff" stroke-width="0" fill-rule="evenodd" stroke-linejoin="miter" fill="#ffffff" shape-rendering="geometricPrecision" /></g><g id="Solid"><path d="M181.98 434.87 L181.98 434.87 L182.15 434.57 L182.5 434.57 L189.51 446.74 L189.34 447.04 L189.17 447.34 Z" stroke="#ffffff" stroke-width="0" fill-rule="evenodd" stroke-linejoin="miter" fill="#ffffff" shape-rendering="geometricPrecision" /></g><g id="Solid"><path d="M189.17 447.34 L189.17 447.34 L189.34 447.04 L189.51 446.74 L203.57 446.74 L203.74 447.04 L203.91 447.34 Z" stroke="#ffffff" stroke-width="0" fill-rule="evenodd" stroke-linejoin="miter" fill="#ffffff" shape-rendering="geometricPrecision" /></g><g id="Solid"><path d="M203.91 447.34 L203.91 447.34 L203.74 447.04 L203.57 446.74 L210.58 434.57 L210.93 434.57 L211.1 434.87 Z" stroke="#ffffff" stroke-width="0" fill-rule="evenodd" stroke-linejoin="miter" fill="#ffffff" shape-rendering="geometricPrecision" /></g><g id="Solid"><path d="M211.1 384.81 L211.1 384.81 L210.93 385.11 L210.58 385.11 L203.41 372.89 L203.67 372.74 L203.93 372.59 Z" stroke="#ffffff" stroke-width="0" fill-rule="evenodd" stroke-linejoin="miter" fill="#ffffff" shape-rendering="geometricPrecision" /></g><g id="Solid"><path d="M203.91 397.08 L203.91 397.08 L204.09 397.38 L203.91 397.68 L189.57 397.68 L189.74 397.38 L189.91 397.08 Z" stroke="#ffffff" stroke-width="0" fill-rule="evenodd" stroke-linejoin="miter" fill="#ffffff" shape-rendering="geometricPrecision" /></g><g id="Solid"><path d="M189.91 397.08 L189.91 397.08 L189.74 397.38 L189.57 397.68 L182.3 385.1 L182.56 384.95 L182.82 384.8 Z" stroke="#ffffff" stroke-width="0" fill-rule="evenodd" stroke-linejoin="miter" fill="#ffffff" shape-rendering="geometricPrecision" /></g><g id="Solid"><path d="M233.05 397.68 L233.05 397.68 L232.88 397.38 L233.05 397.08 L247.22 397.08 L247.22 397.38 L247.22 397.68 Z" stroke="#ffffff" stroke-width="0" fill-rule="evenodd" stroke-linejoin="miter" fill="#ffffff" shape-rendering="geometricPrecision" /></g><g id="Solid"><path d="M232.7 422.4 L232.7 422.4 L232.53 422.1 L232.7 421.8 L246.88 421.8 L246.88 422.1 L246.88 422.4 Z" stroke="#ffffff" stroke-width="0" fill-rule="evenodd" stroke-linejoin="miter" fill="#ffffff" shape-rendering="geometricPrecision" /></g><g id="Solid"><path d="M181.98 434.27 L181.98 434.27 L182.15 434.57 L181.98 434.87 L167.8 434.87 L167.8 434.57 L167.8 434.27 Z" stroke="#ffffff" stroke-width="0" fill-rule="evenodd" stroke-linejoin="miter" fill="#ffffff" shape-rendering="geometricPrecision" /></g></g></g></svg>